<svg width="15" height="16" viewBox="0 0 15 16" fill="none" xmlns="http://www.w3.org/2000/svg">
<path d="M14 8.76866H2V3.14366C1.99942 2.93182 2.04086 2.72198 2.12193 2.52627C2.203 2.33056 2.32208 2.15288 2.47228 2.0035L2.48478 1.991C2.72018 1.75595 3.0224 1.59931 3.35016 1.54247C3.67792 1.48563 4.01524 1.53137 4.31603 1.67344C4.03196 2.14575 3.91389 2.69945 3.98057 3.24656C4.04726 3.79366 4.29488 4.30279 4.68409 4.69303L5.02631 5.03525L4.39641 5.66519L5.10347 6.37225L5.73338 5.74234L9.22366 2.25212L9.85356 1.62222L9.14647 0.915125L8.51653 1.54503L8.17431 1.20281C7.76458 0.794228 7.22448 0.542362 6.64812 0.491104C6.07176 0.439846 5.49568 0.592446 5.02028 0.922312C4.51897 0.605723 3.9249 0.469049 3.33564 0.534743C2.74638 0.600436 2.19699 0.864591 1.77772 1.28381L1.76522 1.29631C1.52186 1.53834 1.32892 1.82624 1.19757 2.14333C1.06622 2.46043 0.999066 2.80043 1 3.14366V8.76866H0V9.76866H1V10.728C0.999978 10.8086 1.01298 10.8887 1.0385 10.9652L1.96875 13.7558C2.01839 13.9052 2.11385 14.0352 2.24156 14.1272C2.36928 14.2193 2.52275 14.2688 2.68019 14.2687H3.08331L2.71875 15.5187H3.76041L4.125 14.2687H10.6281L11.0031 15.5187H12.0469L11.6719 14.2687H12.3197C12.4771 14.2688 12.6306 14.2193 12.7584 14.1273C12.8861 14.0352 12.9816 13.9052 13.0312 13.7558L13.9614 10.9652C13.987 10.8887 14 10.8086 14 10.728V9.76866H15V8.76866H14ZM5.39125 1.90991C5.66675 1.63501 6.04004 1.48062 6.42923 1.48062C6.81842 1.48062 7.19172 1.63501 7.46722 1.90991L7.80937 2.25212L5.73347 4.32803L5.39125 3.98587C5.11637 3.71037 4.96199 3.33708 4.96199 2.94789C4.96199 2.55871 5.11637 2.18541 5.39125 1.90991ZM13 10.6874L12.1396 13.2687H2.86037L2 10.6874V9.76866H13V10.6874Z" fill="#1D6A65"/>
</svg>
