<svg width="16" height="16" viewBox="0 0 16 16" fill="none" xmlns="http://www.w3.org/2000/svg">
<path d="M0.8 14.1785V15.2C0.8 15.4122 0.884285 15.6157 1.03431 15.7657C1.18434 15.9157 1.38783 16 1.6 16H2.4C2.61217 16 2.81566 15.9157 2.96569 15.7657C3.11571 15.6157 3.2 15.4122 3.2 15.2V14.4001H12.8V15.2C12.8 15.4122 12.8843 15.6157 13.0343 15.7657C13.1843 15.9157 13.3878 16 13.6 16H14.4C14.6122 16 14.8157 15.9157 14.9657 15.7657C15.1157 15.6157 15.2 15.4122 15.2 15.2V14.1785C15.4427 14.0393 15.6445 13.8386 15.7849 13.5966C15.9254 13.3546 15.9995 13.0799 16 12.8001V10.4001C16 9.73537 15.5944 9.16658 15.0176 8.92419L13.9232 5.64107C13.7644 5.16306 13.4591 4.74725 13.0505 4.4527C12.6419 4.15815 12.1509 3.99986 11.6472 4.00031H4.3528C3.84911 3.99986 3.35809 4.15815 2.94951 4.4527C2.54092 4.74725 2.23556 5.16306 2.0768 5.64107L0.9824 8.92419C0.69144 9.04604 0.442969 9.25114 0.268188 9.51374C0.0934057 9.77633 0.00010453 10.0847 0 10.4001V12.8001C0 13.3905 0.3232 13.9009 0.8 14.1785ZM2.8 12.8001C2.64236 12.8 2.48628 12.7689 2.34066 12.7086C2.19504 12.6482 2.06274 12.5597 1.95131 12.4482C1.72626 12.223 1.59989 11.9177 1.6 11.5993C1.60011 11.281 1.72668 10.9757 1.95187 10.7506C2.17707 10.5256 2.48243 10.3992 2.8008 10.3993C3.11917 10.3995 3.42445 10.526 3.64949 10.7512C3.87454 10.9764 4.00091 11.2818 4.0008 11.6001C4.00069 11.9185 3.87412 12.2238 3.64893 12.4488C3.42373 12.6738 3.11837 12.8002 2.8 12.8001ZM13.2 12.8001C12.8816 12.8 12.5764 12.6734 12.3513 12.4482C12.1263 12.223 11.9999 11.9177 12 11.5993C12.0001 11.281 12.1267 10.9757 12.3519 10.7506C12.5771 10.5256 12.8824 10.3992 13.2008 10.3993C13.5192 10.3995 13.8244 10.526 14.0495 10.7512C14.2745 10.9764 14.4009 11.2818 14.4008 11.6001C14.4007 11.9185 14.2741 12.2238 14.0489 12.4488C13.8237 12.6738 13.5184 12.8002 13.2 12.8001ZM4.3528 5.60027H11.6464C11.8144 5.60023 11.9781 5.65306 12.1144 5.75127C12.2506 5.84948 12.3525 5.98809 12.4056 6.14745L13.2904 8.80019H2.7096L3.5936 6.14745C3.7032 5.82026 4.0088 5.60027 4.3528 5.60027Z" fill="#1D6A65"/>
<path d="M16 4.3107V2.62354L8.2528 0.0412036C8.08159 -0.0161043 7.89598 -0.0135659 7.7264 0.0484032L0 2.85793V4.56029L8.012 1.64676L16 4.3107Z" fill="#1D6A65"/>
</svg>
